# xmcd
#
# Track frame offsets: 
#        150
#        46853
#        75395
#        103203
#        132724
#        157740
#        201507
#
# Disc length: 3393 seconds
#
# Revision: 0
# Processed by: cddbd v1.5.2PL0 Copyright (c) Steve Scherf et al.
# Submitted via: ExactAudioCopyFreeDBPlugin 1.0
#
DISCID=580d3f07
DTITLE=Junior Wells - Sexy Bitch -6- Stylin' and Profilin'
DYEAR=2018
DGENRE=Blues
TTITLE0=Broke And Hungry
TTITLE1=My Younger Days
TTITLE2=Little Red Rooster
TTITLE3=Got My Mojo Workin'
TTITLE4=Little By Little
TTITLE5=Today I Started Loving You Again
TTITLE6=Help Me
EXTD=
EXTT0=
EXTT1=
EXTT2=
EXTT3=
EXTT4=
EXTT5=
EXTT6=
PLAYORDER=
